<?xml version="1.0" encoding="UTF-8" standalone="no"?>
<!-- Created with Inkscape (http://www.inkscape.org/) -->

<svg
   xmlns:dc="http://purl.org/dc/elements/1.1/"
   xmlns:cc="http://creativecommons.org/ns#"
   xmlns:rdf="http://www.w3.org/1999/02/22-rdf-syntax-ns#"
   xmlns:svg="http://www.w3.org/2000/svg"
   xmlns="http://www.w3.org/2000/svg"
   xmlns:sodipodi="http://sodipodi.sourceforge.net/DTD/sodipodi-0.dtd"
   xmlns:inkscape="http://www.inkscape.org/namespaces/inkscape"
   width="32px"
   height="32px"
   id="svg3005"
   version="1.1"
   inkscape:version="0.48.3.1 r9886"
   sodipodi:docname="Nowy dokument 1">
  <defs
     id="defs3007" />
  <sodipodi:namedview
     id="base"
     pagecolor="#ffffff"
     bordercolor="#666666"
     borderopacity="1.0"
     inkscape:pageopacity="0.0"
     inkscape:pageshadow="2"
     inkscape:zoom="11.197802"
     inkscape:cx="16"
     inkscape:cy="16"
     inkscape:current-layer="layer1"
     showgrid="true"
     inkscape:grid-bbox="true"
     inkscape:document-units="px"
     inkscape:window-width="1535"
     inkscape:window-height="876"
     inkscape:window-x="65"
     inkscape:window-y="24"
     inkscape:window-maximized="1" />
  <metadata
     id="metadata3010">
    <rdf:RDF>
      <cc:Work
         rdf:about="">
        <dc:format>image/svg+xml</dc:format>
        <dc:type
           rdf:resource="http://purl.org/dc/dcmitype/StillImage" />
        <dc:title></dc:title>
      </cc:Work>
    </rdf:RDF>
  </metadata>
  <g
     id="layer1"
     inkscape:label="Layer 1"
     inkscape:groupmode="layer">
    <g
       transform="matrix(0.49854598,0,0,0.54320463,-0.34541128,-3.2890733)"
       id="g3046">
      <path
         sodipodi:nodetypes="ccccc"
         inkscape:connector-curvature="0"
         id="path4608"
         d="M 25.259083,49.374612 1.7125638,45.542981 7.3246874,48.756609 25.381085,51.228626 z"
         style="fill:#000000;fill-opacity:0.97658859;stroke:#000000;stroke-width:0.34383789px;stroke-linecap:butt;stroke-linejoin:miter;stroke-opacity:1" />
      <path
         sodipodi:nodetypes="zczczczcz"
         inkscape:connector-curvature="0"
         id="path4489"
         d="m 8.6253441,24.341535 c 1.4723769,0.124022 5.2525319,3.78548 5.2525319,3.78548 0,0 -0.682705,-3.856823 -0.210099,-5.391442 0.472606,-1.534618 1.995964,-3.441345 1.995964,-3.441345 0,0 -3.848867,-0.601426 -5.567688,-1.08976 C 8.3772361,17.716133 5.3687765,16.42644 5.3687765,16.42644 c 0,0 -1.1258132,3.052767 -1.6808118,4.932596 -0.5549986,1.879829 0.525252,4.932596 0.525252,4.932596 0,0 2.9397504,-2.074119 4.4121274,-1.950097 z"
         style="fill:#000000;fill-opacity:0.97658859;stroke:#000000;stroke-width:0.30736968px;stroke-linecap:butt;stroke-linejoin:miter;stroke-opacity:1" />
      <path
         sodipodi:nodetypes="zczczczcz"
         inkscape:connector-curvature="0"
         id="path4489-2"
         d="m 7.4440121,39.254038 c 1.472377,0.124022 8.9293049,5.965001 8.9293049,5.965001 0,0 -2.993819,-7.298168 -2.521213,-8.832787 0.472607,-1.534618 0.525255,-5.276731 0.525255,-5.276731 0,0 -3.743817,-1.519117 -5.4626379,-2.007453 -1.718818,-0.488334 -4.8323268,-0.860336 -4.8323268,-0.860336 0,0 -1.9662177,4.429305 -2.5212163,6.309134 -0.5549987,1.879829 0.4201993,7.226828 0.4201993,7.226828 0,0 3.9902578,-2.647678 5.4626348,-2.523656 z"
         style="fill:#000000;fill-opacity:0.97658859;stroke:#000000;stroke-width:0.30736968px;stroke-linecap:butt;stroke-linejoin:miter;stroke-opacity:1" />
      <path
         sodipodi:nodetypes="zczczczcz"
         inkscape:connector-curvature="0"
         id="path4489-4"
         d="m 23.353088,43.010201 c 1.409797,0.122753 10.561499,7.039376 10.561499,7.039376 0,0 -3.168334,-8.131837 -3.5205,-10.104914 -0.352165,-1.973077 1.005861,-7.947683 1.005861,-7.947683 0,0 -3.785867,-1.730659 -5.431633,-2.213999 -1.645763,-0.483341 -5.733381,-1.532769 -5.733381,-1.532769 0,0 -3.089678,8.244313 -3.621088,10.104917 -0.53141,1.860604 1.911127,8.855993 1.911127,8.855993 0,0 3.418318,-4.323675 4.828115,-4.200921 z"
         style="fill:#000000;fill-opacity:0.97658859;stroke:#000000;stroke-width:0.29922473px;stroke-linecap:butt;stroke-linejoin:miter;stroke-opacity:1" />
      <path
         sodipodi:nodetypes="zczczczcz"
         inkscape:connector-curvature="0"
         id="path4489-5"
         d="m 24.560118,22.119138 c 2.516239,0.236291 6.437484,5.790455 6.437484,5.790455 0,0 -0.854861,-6.5423 -0.402342,-8.061224 0.45252,-1.518923 2.212888,-4.655071 2.212888,-4.655071 0,0 -4.489964,-1.617121 -6.13573,-2.100462 -1.645763,-0.48334 -4.828112,-1.078612 -4.828112,-1.078612 0,0 -2.08382,5.632928 -2.61523,7.493533 -0.53141,1.860604 1.508785,7.379993 1.508785,7.379993 0,0 1.306018,-5.004906 3.822257,-4.768612 z"
         style="fill:#000000;fill-opacity:0.97658859;stroke:#000000;stroke-width:0.29922473px;stroke-linecap:butt;stroke-linejoin:miter;stroke-opacity:1" />
      <path
         sodipodi:nodetypes="zczczczcz"
         inkscape:connector-curvature="0"
         id="path4489-6"
         d="m 56.166813,25.39602 c 1.709975,0.133633 7.198156,6.303649 7.198156,6.303649 0,0 -1.768895,-5.26811 -1.220024,-6.921652 0.548871,-1.653542 2.318053,-5.809246 2.318053,-5.809246 0,0 -4.225951,-1.266036 -6.222138,-1.792213 -1.996184,-0.526178 -5.490119,-0.309004 -5.490119,-0.309004 0,0 -1.551493,2.30053 -2.196051,4.326035 -0.644559,2.025505 -0.244007,6.674452 -0.244007,6.674452 0,0 4.146156,-2.605654 5.85613,-2.472021 z"
         style="fill:#000000;fill-opacity:0.97658859;stroke:#000000;stroke-width:0.34383789px;stroke-linecap:butt;stroke-linejoin:miter;stroke-opacity:1" />
      <path
         sodipodi:nodetypes="zczczczcz"
         inkscape:connector-curvature="0"
         id="path4489-53"
         d="m 55.190789,42.082153 c 1.709975,0.133633 6.954153,4.573235 6.954153,4.573235 0,0 -1.158883,-4.279304 -0.610012,-5.932846 0.548871,-1.653542 1.952044,-5.685645 1.952044,-5.685645 0,0 -4.225951,-1.142437 -6.222139,-1.668614 -1.996183,-0.526177 -5.734125,-1.42141 -5.734125,-1.42141 0,0 -2.161504,5.266954 -2.806063,7.292459 -0.644559,2.025505 1.220024,7.292456 1.220024,7.292456 0,0 3.536143,-4.583268 5.246118,-4.449635 z"
         style="fill:#000000;fill-opacity:0.97658859;stroke:#000000;stroke-width:0.34383789px;stroke-linecap:butt;stroke-linejoin:miter;stroke-opacity:1" />
      <path
         sodipodi:nodetypes="cc"
         inkscape:connector-curvature="0"
         id="path4537"
         d="m 25.892413,51.639115 0,-6.244608"
         style="fill:none;stroke:#000000;stroke-width:0.80790681;stroke-linecap:butt;stroke-linejoin:miter;stroke-miterlimit:4;stroke-opacity:1;stroke-dasharray:none" />
      <path
         sodipodi:nodetypes="cc"
         inkscape:connector-curvature="0"
         id="path4537-3"
         d="m 9.5708011,46.136731 0.2101,-4.932593"
         style="fill:none;stroke:#000000;stroke-width:0.82989812;stroke-linecap:butt;stroke-linejoin:miter;stroke-miterlimit:4;stroke-opacity:1;stroke-dasharray:none" />
      <path
         sodipodi:nodetypes="cc"
         inkscape:connector-curvature="0"
         id="path4537-6"
         d="M 9.8859541,28.471153 9.6758511,25.488655"
         style="fill:none;stroke:#000000;stroke-width:0.82989812;stroke-linecap:butt;stroke-linejoin:miter;stroke-miterlimit:4;stroke-opacity:1;stroke-dasharray:none" />
      <path
         sodipodi:nodetypes="cc"
         inkscape:connector-curvature="0"
         id="path4537-2"
         d="m 9.8859541,16.885283 0.2100989,-6.07971"
         style="fill:none;stroke:#000000;stroke-width:0.82989812;stroke-linecap:butt;stroke-linejoin:miter;stroke-miterlimit:4;stroke-opacity:1;stroke-dasharray:none" />
      <path
         sodipodi:nodetypes="cc"
         inkscape:connector-curvature="0"
         id="path4537-4"
         d="M 25.992995,11.787143 25.89241,6.4508438"
         style="fill:none;stroke:#000000;stroke-width:0.80790681;stroke-linecap:butt;stroke-linejoin:miter;stroke-miterlimit:4;stroke-opacity:1;stroke-dasharray:none" />
      <path
         sodipodi:nodetypes="cc"
         inkscape:connector-curvature="0"
         id="path4537-7"
         d="m 25.892413,29.272052 0,-6.131071"
         style="fill:none;stroke:#000000;stroke-width:0.80790681;stroke-linecap:butt;stroke-linejoin:miter;stroke-miterlimit:4;stroke-opacity:1;stroke-dasharray:none" />
      <path
         sodipodi:nodetypes="cc"
         inkscape:connector-curvature="0"
         id="path4537-76"
         d="m 57.538774,32.441273 0.122002,-5.067639"
         style="fill:none;stroke:#000000;stroke-width:0.92836231;stroke-linecap:butt;stroke-linejoin:miter;stroke-miterlimit:4;stroke-opacity:1;stroke-dasharray:none" />
      <path
         sodipodi:nodetypes="cc"
         inkscape:connector-curvature="0"
         id="path4537-8"
         d="m 57.904783,15.75514 0.122001,-4.202431"
         style="fill:none;stroke:#000000;stroke-width:0.92836231;stroke-linecap:butt;stroke-linejoin:miter;stroke-miterlimit:4;stroke-opacity:1;stroke-dasharray:none" />
      <path
         sodipodi:nodetypes="cc"
         inkscape:connector-curvature="0"
         id="path4537-5"
         d="M 57.660779,48.138602 57.538774,44.554177"
         style="fill:none;stroke:#000000;stroke-width:0.92836231;stroke-linecap:butt;stroke-linejoin:miter;stroke-miterlimit:4;stroke-opacity:1;stroke-dasharray:none" />
      <path
         inkscape:connector-curvature="0"
         id="path4606"
         d="m 46.243547,48.138602 0,2.842824 17.568388,0 0,-2.719221 z"
         style="fill:#000000;fill-opacity:0.97658859;stroke:#000000;stroke-width:0.34383789px;stroke-linecap:butt;stroke-linejoin:miter;stroke-opacity:1" />
      <path
         sodipodi:nodetypes="ccczccc"
         inkscape:connector-curvature="0"
         id="path4610"
         d="m 7.2026857,50.363419 c 0,0 3.4112723,11.865376 8.7841923,13.843312 12.792143,0.639163 43.066952,0.123603 43.066952,0.123603 0,0 -0.69664,-2.777172 -0.122002,-5.438445 0.574639,-2.661276 2.196048,-6.056449 2.196048,-6.056449 l -39.40687,-0.1236 z"
         style="fill:#000000;fill-opacity:0.97658859;stroke:#000000;stroke-width:0.34383789px;stroke-linecap:butt;stroke-linejoin:miter;stroke-opacity:1" />
      <path
         sodipodi:nodetypes="zczczczcz"
         inkscape:connector-curvature="0"
         id="path4489-6-3"
         d="m 40.842658,25.220861 c 1.724801,0.168042 7.260565,7.926818 7.260565,7.926818 0,0 -1.784231,-6.624632 -1.230602,-8.703956 0.55363,-2.079323 2.338151,-7.305109 2.338151,-7.305109 0,0 -4.26259,-1.592035 -6.276084,-2.253702 -2.013492,-0.661666 -5.537719,-0.38857 -5.537719,-0.38857 0,0 -1.564946,2.892909 -2.215091,5.439974 -0.650148,2.547066 -0.246123,8.393103 -0.246123,8.393103 0,0 4.182104,-3.276601 5.906903,-3.108558 z"
         style="fill:#000000;fill-opacity:0.97658859;stroke:#000000;stroke-width:0.38724139px;stroke-linecap:butt;stroke-linejoin:miter;stroke-opacity:1" />
      <path
         sodipodi:nodetypes="zczczczcz"
         inkscape:connector-curvature="0"
         id="path4489-53-1"
         d="m 39.858172,46.20362 c 1.7248,0.168044 7.014447,5.750829 7.014447,5.750829 0,0 -1.168931,-5.381211 -0.615302,-7.460534 0.55363,-2.079324 1.968968,-7.149682 1.968968,-7.149682 0,0 -4.26259,-1.436611 -6.276085,-2.098276 -2.01349,-0.661666 -5.78384,-1.787419 -5.78384,-1.787419 0,0 -2.180245,6.623178 -2.830393,9.170245 -0.650146,2.547066 1.230602,9.170241 1.230602,9.170241 0,0 3.566803,-5.763446 5.291603,-5.595404 z"
         style="fill:#000000;fill-opacity:0.97658859;stroke:#000000;stroke-width:0.38724139px;stroke-linecap:butt;stroke-linejoin:miter;stroke-opacity:1" />
      <path
         sodipodi:nodetypes="cc"
         inkscape:connector-curvature="0"
         id="path4537-76-9"
         d="m 42.226514,34.080244 0.12306,-6.372539"
         style="fill:none;stroke:#000000;stroke-width:1.04555178;stroke-linecap:butt;stroke-linejoin:miter;stroke-miterlimit:4;stroke-opacity:1;stroke-dasharray:none" />
      <path
         sodipodi:nodetypes="cc"
         inkscape:connector-curvature="0"
         id="path4537-8-3"
         d="M 42.595697,13.097485 42.718755,7.8129401"
         style="fill:none;stroke:#000000;stroke-width:1.04555178;stroke-linecap:butt;stroke-linejoin:miter;stroke-miterlimit:4;stroke-opacity:1;stroke-dasharray:none" />
      <path
         sodipodi:nodetypes="cc"
         inkscape:connector-curvature="0"
         id="path4537-5-1"
         d="M 42.349577,53.819586 42.226514,49.312184"
         style="fill:none;stroke:#000000;stroke-width:1.04555178;stroke-linecap:butt;stroke-linejoin:miter;stroke-miterlimit:4;stroke-opacity:1;stroke-dasharray:none" />
    </g>
  </g>
</svg>
