<?xml version="1.0" encoding="UTF-8" standalone="no"?>
<!-- Created with Inkscape (http://www.inkscape.org/) -->

<svg
   xmlns:dc="http://purl.org/dc/elements/1.1/"
   xmlns:cc="http://creativecommons.org/ns#"
   xmlns:rdf="http://www.w3.org/1999/02/22-rdf-syntax-ns#"
   xmlns:svg="http://www.w3.org/2000/svg"
   xmlns="http://www.w3.org/2000/svg"
   xmlns:sodipodi="http://sodipodi.sourceforge.net/DTD/sodipodi-0.dtd"
   xmlns:inkscape="http://www.inkscape.org/namespaces/inkscape"
   width="32"
   height="32"
   id="svg3846"
   version="1.1"
   inkscape:version="0.48.3.1 r9886"
   sodipodi:docname="JednoMasztowiec.svg">
  <defs
     id="defs3848" />
  <sodipodi:namedview
     id="base"
     pagecolor="#ffffff"
     bordercolor="#666666"
     borderopacity="1.0"
     inkscape:pageopacity="0.0"
     inkscape:pageshadow="2"
     inkscape:zoom="5.5"
     inkscape:cx="21.128125"
     inkscape:cy="49.209038"
     inkscape:current-layer="layer1"
     showgrid="true"
     inkscape:document-units="px"
     inkscape:grid-bbox="true"
     inkscape:window-width="1535"
     inkscape:window-height="876"
     inkscape:window-x="65"
     inkscape:window-y="24"
     inkscape:window-maximized="1" />
  <metadata
     id="metadata3851">
    <rdf:RDF>
      <cc:Work
         rdf:about="">
        <dc:format>image/svg+xml</dc:format>
        <dc:type
           rdf:resource="http://purl.org/dc/dcmitype/StillImage" />
        <dc:title />
      </cc:Work>
    </rdf:RDF>
  </metadata>
  <g
     id="layer1"
     inkscape:label="Layer 1"
     inkscape:groupmode="layer"
     transform="translate(0,-32)">
    <g
       id="g3829"
       transform="matrix(0.16732776,0,0,0.14416593,1.2059996,17.739124)">
      <path
         sodipodi:nodetypes="csssssssssssscssssscsscscsssssssssc"
         inkscape:connector-curvature="0"
         id="path3055"
         d="m 86.555777,291.82202 c -6.93475,-1.07032 -42.9585,-10.04845 -49.6331,-12.59837 -4.75351,-1.81602 -3.73547,-5.52353 0.50293,-7.79186 3.35839,-1.79736 9.964005,-11.25332 25.229305,-28.21965 5.10714,-5.67624 12.436898,-13.97543 15.671028,-17.20801 3.23413,-3.23259 9.89106,-10.9514 14.48453,-16.84426 4.59347,-5.89286 12.40573,-16.79841 17.97788,-22.69126 5.86523,-6.20281 14.5372,-12.74861 18.16454,-19.36494 3.44608,-6.28571 9.06789,-10.80874 10.02363,-11.59445 0.95575,-0.78572 3.80611,-5.28572 6.33414,-10 2.52803,-4.71429 5.47701,-10.17857 6.55327,-12.14286 2.81529,-5.13816 -4.11693,-6.9693 -8.16297,-7.98479 -4.69877,-1.17932 -1.84649,-8.9263 5.00744,-11.97931 l 10.59916,-7.13644 1.01015,11.96393 c 0.48823,5.78246 -2.53235,11.82353 0.657,17.80024 5.8101,10.88789 13.86,36.58537 15.63153,48.93336 1.92055,13.38655 2.92418,63.1435 1.00015,76.50219 -0.82452,5.72435 -2.14305,11.92143 -3.49519,14.42756 l -3.25876,6.03996 -14.07332,1.14817 c -11.80346,0.96299 -17.13262,-0.82148 -27.94061,3.44149 -7.07143,2.78917 -13.11819,4.83397 -13.43724,4.544 -4.86474,1.47781 -0.45907,-6.43441 2.1581,-10.56774 9.23936,-14.5918 13.32834,-20.61089 15.94051,-30.85435 1.45217,-5.69513 3.51102,-14.71699 5.19239,-19.43128 1.68137,-4.71428 4.41907,-13.07143 5.46647,-18.57143 1.04741,-5.5 3.18001,-11.96849 3.67601,-16.34191 3.15576,-27.82559 6.0217,-47.89304 2.82462,-47.89304 -2.1255,0 1.79709,-1.24066 -8.37029,27.43129 -4.17934,11.78571 -10.35049,27.46682 -13.09634,34.53825 -2.74586,7.07143 -6.1608,22.04079 -9.44072,32.64794 -3.27991,10.60714 -7.08711,16.99002 -8.15177,19.74002 -1.06466,2.75 0.40068,10.61114 -5.72652,18.82789 -7.990343,10.71527 -8.124923,12.95719 -19.317953,11.22966 z"
         style="fill:#000000" />
      <path
         sodipodi:nodetypes="csccccccccc"
         inkscape:connector-curvature="0"
         id="path3057"
         d="M 1.5152288,283.88863 C 0,283.63609 4.376905e-8,295.75792 -1.0101525,295.00031 c -1.0101526,-0.75762 14.3946735,19.1929 14.3946735,19.1929 l 146.724659,-2.52538 20.96067,-30.80966 -9.34392,1.01015 -30.80965,8.08123 -33.33504,5.05076 -47.477163,0.75761 -38.133259,-7.3236 z"
         style="fill:#000000;fill-opacity:1;stroke:#000000;stroke-width:1px;stroke-linecap:butt;stroke-linejoin:miter;stroke-opacity:1" />
    </g>
  </g>
</svg>
