<?xml version="1.0" encoding="UTF-8" standalone="no"?>
<!-- Created with Inkscape (http://www.inkscape.org/) -->

<svg
   xmlns:dc="http://purl.org/dc/elements/1.1/"
   xmlns:cc="http://creativecommons.org/ns#"
   xmlns:rdf="http://www.w3.org/1999/02/22-rdf-syntax-ns#"
   xmlns:svg="http://www.w3.org/2000/svg"
   xmlns="http://www.w3.org/2000/svg"
   xmlns:sodipodi="http://sodipodi.sourceforge.net/DTD/sodipodi-0.dtd"
   xmlns:inkscape="http://www.inkscape.org/namespaces/inkscape"
   width="32"
   height="32"
   id="svg4682"
   version="1.1"
   inkscape:version="0.48.3.1 r9886"
   sodipodi:docname="TrzyMasztowiec.svg">
  <defs
     id="defs4684" />
  <sodipodi:namedview
     id="base"
     pagecolor="#ffffff"
     bordercolor="#666666"
     borderopacity="1.0"
     inkscape:pageopacity="0.0"
     inkscape:pageshadow="2"
     inkscape:zoom="5.5"
     inkscape:cx="83.645891"
     inkscape:cy="22.115552"
     inkscape:current-layer="layer1"
     showgrid="true"
     inkscape:document-units="px"
     inkscape:grid-bbox="true"
     inkscape:window-width="1535"
     inkscape:window-height="876"
     inkscape:window-x="65"
     inkscape:window-y="24"
     inkscape:window-maximized="1" />
  <metadata
     id="metadata4687">
    <rdf:RDF>
      <cc:Work
         rdf:about="">
        <dc:format>image/svg+xml</dc:format>
        <dc:type
           rdf:resource="http://purl.org/dc/dcmitype/StillImage" />
        <dc:title />
      </cc:Work>
    </rdf:RDF>
  </metadata>
  <g
     id="layer1"
     inkscape:label="Layer 1"
     inkscape:groupmode="layer"
     transform="translate(0,-32)">
    <g
       id="g4631"
       transform="matrix(0.16238434,0,0,0.16967003,-95.770518,9.8514382)">
      <path
         sodipodi:nodetypes="ccccc"
         inkscape:connector-curvature="0"
         id="path4608"
         d="m 663.57143,269.86218 -68.92857,-11.07143 16.42857,9.28572 52.85714,7.14285 z"
         style="fill:#000000;fill-opacity:0.97658859;stroke:#000000;stroke-width:1px;stroke-linecap:butt;stroke-linejoin:miter;stroke-opacity:1" />
      <g
         id="g4612">
        <path
           style="fill:#000000;fill-opacity:0.97658859;stroke:#000000;stroke-width:1px;stroke-linecap:butt;stroke-linejoin:miter;stroke-opacity:1"
           d="m 630,197.71932 c 5.00567,0.38613 17.85714,11.78571 17.85714,11.78571 0,0 -2.32101,-12.00783 -0.71428,-16.78571 1.60673,-4.77788 6.78572,-10.71428 6.78572,-10.71428 0,0 -13.08507,-1.87248 -18.92858,-3.39286 -5.8435,-1.52038 -16.07142,-5.53571 -16.07142,-5.53571 0,0 -3.82745,9.50448 -5.71429,15.35714 -1.88684,5.85266 1.78571,15.35714 1.78571,15.35714 0,0 9.99433,-6.45756 15,-6.07143 z"
           id="path4489"
           inkscape:connector-curvature="0"
           sodipodi:nodetypes="zczczczcz" />
        <path
           style="fill:#000000;fill-opacity:0.97658859;stroke:#000000;stroke-width:1px;stroke-linecap:butt;stroke-linejoin:miter;stroke-opacity:1"
           d="m 625.9838,244.14789 c 5.00567,0.38613 30.35714,18.57143 30.35714,18.57143 0,0 -10.17815,-22.72211 -8.57142,-27.49999 1.60673,-4.77788 1.78572,-16.42857 1.78572,-16.42857 0,0 -12.72793,-4.72962 -18.57144,-6.25 -5.8435,-1.52038 -16.42856,-2.67857 -16.42856,-2.67857 0,0 -6.68459,13.79019 -8.57143,19.64285 -1.88684,5.85266 1.42856,22.5 1.42856,22.5 0,0 13.56576,-8.24328 18.57143,-7.85715 z"
           id="path4489-2"
           inkscape:connector-curvature="0"
           sodipodi:nodetypes="zczczczcz" />
        <path
           style="fill:#000000;fill-opacity:0.97658859;stroke:#000000;stroke-width:1px;stroke-linecap:butt;stroke-linejoin:miter;stroke-opacity:1"
           d="m 678.84094,250.21933 c 5.00567,0.38613 37.5,22.14285 37.5,22.14285 0,0 -11.24959,-25.57926 -12.5,-31.78571 -1.25041,-6.20645 3.57144,-24.99999 3.57144,-24.99999 0,0 -13.44222,-5.44391 -19.28573,-6.96429 -5.8435,-1.52038 -20.35713,-4.82143 -20.35713,-4.82143 0,0 -10.97031,25.93306 -12.85715,31.78572 -1.88684,5.85266 6.78571,27.85714 6.78571,27.85714 0,0 12.13719,-13.60042 17.14286,-13.21429 z"
           id="path4489-4"
           inkscape:connector-curvature="0"
           sodipodi:nodetypes="zczczczcz" />
        <path
           style="fill:#000000;fill-opacity:0.97658859;stroke:#000000;stroke-width:1px;stroke-linecap:butt;stroke-linejoin:miter;stroke-opacity:1"
           d="m 683.12666,184.50504 c 8.93424,0.74327 22.85714,18.21428 22.85714,18.21428 0,0 -3.0353,-20.57926 -1.42857,-25.35714 1.60673,-4.77788 7.85715,-14.64285 7.85715,-14.64285 0,0 -15.94221,-5.08677 -21.78572,-6.60715 -5.8435,-1.52038 -17.14285,-3.39285 -17.14285,-3.39285 0,0 -7.39888,17.71877 -9.28572,23.57143 -1.88684,5.85266 5.35714,23.21428 5.35714,23.21428 0,0 4.63719,-15.74328 13.57143,-15 z"
           id="path4489-5"
           inkscape:connector-curvature="0"
           sodipodi:nodetypes="zczczczcz" />
        <path
           style="fill:#000000;fill-opacity:0.97658859;stroke:#000000;stroke-width:1px;stroke-linecap:butt;stroke-linejoin:miter;stroke-opacity:1"
           d="m 735.98381,200.57647 c 5.00567,0.38613 21.07142,18.21428 21.07142,18.21428 0,0 -5.17815,-15.22211 -3.57142,-19.99999 1.60673,-4.77788 6.78572,-16.78571 6.78572,-16.78571 0,0 -12.37078,-3.65819 -18.21429,-5.17857 -5.8435,-1.52038 -16.07142,-0.89286 -16.07142,-0.89286 0,0 -4.54174,6.64734 -6.42858,12.5 -1.88684,5.85266 -0.71429,19.28571 -0.71429,19.28571 0,0 12.13719,-7.52899 17.14286,-7.14286 z"
           id="path4489-6"
           inkscape:connector-curvature="0"
           sodipodi:nodetypes="zczczczcz" />
        <path
           style="fill:#000000;fill-opacity:0.97658859;stroke:#000000;stroke-width:1px;stroke-linecap:butt;stroke-linejoin:miter;stroke-opacity:1"
           d="m 733.12666,248.79075 c 5.00567,0.38613 20.35714,13.21428 20.35714,13.21428 0,0 -3.39244,-12.36497 -1.78571,-17.14285 1.60673,-4.77788 5.71429,-16.42857 5.71429,-16.42857 0,0 -12.37078,-3.30105 -18.21429,-4.82143 -5.8435,-1.52038 -16.78571,-4.10714 -16.78571,-4.10714 0,0 -6.32745,15.21877 -8.21429,21.07143 -1.88684,5.85266 3.57142,21.07142 3.57142,21.07142 0,0 10.35148,-13.24327 15.35715,-12.85714 z"
           id="path4489-53"
           inkscape:connector-curvature="0"
           sodipodi:nodetypes="zczczczcz" />
        <path
           style="fill:none;stroke:#000000;stroke-width:2.70000005;stroke-linecap:butt;stroke-linejoin:miter;stroke-miterlimit:4;stroke-opacity:1;stroke-dasharray:none"
           d="m 687.85715,277.36218 0,-19.64285"
           id="path4537"
           inkscape:connector-curvature="0"
           sodipodi:nodetypes="cc" />
        <path
           style="fill:none;stroke:#000000;stroke-width:2.70000005;stroke-linecap:butt;stroke-linejoin:miter;stroke-miterlimit:4;stroke-opacity:1;stroke-dasharray:none"
           d="m 633.21429,265.57646 0.71428,-15.35713"
           id="path4537-3"
           inkscape:connector-curvature="0"
           sodipodi:nodetypes="cc" />
        <path
           style="fill:none;stroke:#000000;stroke-width:2.70000005;stroke-linecap:butt;stroke-linejoin:miter;stroke-miterlimit:4;stroke-opacity:1;stroke-dasharray:none"
           d="m 634.28572,210.57647 -0.71429,-9.28571"
           id="path4537-6"
           inkscape:connector-curvature="0"
           sodipodi:nodetypes="cc" />
        <path
           style="fill:none;stroke:#000000;stroke-width:2.70000005;stroke-linecap:butt;stroke-linejoin:miter;stroke-miterlimit:4;stroke-opacity:1;stroke-dasharray:none"
           d="M 634.28572,174.50503 635,155.57647"
           id="path4537-2"
           inkscape:connector-curvature="0"
           sodipodi:nodetypes="cc" />
        <path
           style="fill:none;stroke:#000000;stroke-width:2.70000005;stroke-linecap:butt;stroke-linejoin:miter;stroke-miterlimit:4;stroke-opacity:1;stroke-dasharray:none"
           d="m 688.21428,152.00503 -0.35714,-16.7857"
           id="path4537-4"
           inkscape:connector-curvature="0"
           sodipodi:nodetypes="cc" />
        <path
           style="fill:none;stroke:#000000;stroke-width:2.70000005;stroke-linecap:butt;stroke-linejoin:miter;stroke-miterlimit:4;stroke-opacity:1;stroke-dasharray:none"
           d="m 687.85715,207.00503 0,-19.28571"
           id="path4537-7"
           inkscape:connector-curvature="0"
           sodipodi:nodetypes="cc" />
        <path
           style="fill:none;stroke:#000000;stroke-width:2.70000005;stroke-linecap:butt;stroke-linejoin:miter;stroke-miterlimit:4;stroke-opacity:1;stroke-dasharray:none"
           d="m 740,220.9336 0.35714,-14.64285"
           id="path4537-76"
           inkscape:connector-curvature="0"
           sodipodi:nodetypes="cc" />
        <path
           style="fill:none;stroke:#000000;stroke-width:2.70000005;stroke-linecap:butt;stroke-linejoin:miter;stroke-miterlimit:4;stroke-opacity:1;stroke-dasharray:none"
           d="m 741.07143,172.71932 0.35714,-12.14285"
           id="path4537-8"
           inkscape:connector-curvature="0"
           sodipodi:nodetypes="cc" />
        <path
           style="fill:none;stroke:#000000;stroke-width:2.70000005;stroke-linecap:butt;stroke-linejoin:miter;stroke-miterlimit:4;stroke-opacity:1;stroke-dasharray:none"
           d="M 740.35715,266.29075 740,255.93362"
           id="path4537-5"
           inkscape:connector-curvature="0"
           sodipodi:nodetypes="cc" />
        <path
           style="fill:#000000;fill-opacity:0.97658859;stroke:#000000;stroke-width:1px;stroke-linecap:butt;stroke-linejoin:miter;stroke-opacity:1"
           d="m 725,266.29075 0,8.21429 51.42857,0 0,-7.85714 z"
           id="path4606"
           inkscape:connector-curvature="0" />
        <path
           style="fill:#000000;fill-opacity:0.97658859;stroke:#000000;stroke-width:1px;stroke-linecap:butt;stroke-linejoin:miter;stroke-opacity:1"
           d="m 610.71429,272.71932 c 0,0 9.98594,34.28479 25.71428,40 37.4469,1.84685 126.07143,0.35715 126.07143,0.35715 0,0 -2.0393,-8.02459 -0.35714,-15.71429 1.68216,-7.68971 6.42857,-17.5 6.42857,-17.5 l -115.35714,-0.35714 z"
           id="path4610"
           inkscape:connector-curvature="0"
           sodipodi:nodetypes="ccczccc" />
      </g>
    </g>
  </g>
</svg>
